<svg id="Capa_1" data-name="Capa 1" xmlns="http://www.w3.org/2000/svg" viewBox="0 0 1366 1253.06"><defs><style>.cls-1,.cls-2{fill:none;stroke:#f2eee2;stroke-miterlimit:10;stroke-width:3px;}.cls-1{opacity:0.5;}</style></defs><title>formas</title><line class="cls-1" x1="316.11" y1="172.33" x2="313.69" y2="182.78"/><polyline class="cls-1" points="402.42 108.57 404.6 99.16 395.05 96.95"/><path class="cls-1" d="M243.3,40.21a4.92,4.92,0,0,1,.56,3.65,4.54,4.54,0,1,1-8.83-2"/><path class="cls-2" d="M672,353.62a4.92,4.92,0,0,1-2.85,2.34,4.54,4.54,0,1,1-2.76-8.64"/><line class="cls-2" x1="765.6" y1="793.42" x2="768.16" y2="803.83"/><line class="cls-2" x1="922.49" y1="261.18" x2="915.11" y2="268.95"/><line class="cls-1" x1="511.45" y1="1074.07" x2="504.07" y2="1081.85"/><line class="cls-2" x1="169.13" y1="611.2" x2="163.28" y2="620.18"/><polyline class="cls-1" points="293.86 510.76 293.86 516.01 300.7 516.01 300.7 521.26"/><polyline class="cls-1" points="128.43 446.66 133.19 444.45 130.31 438.24 135.07 436.03"/><polyline class="cls-2" points="772.73 605.45 773.62 610.62 766.88 611.78 767.77 616.95"/><polyline class="cls-1" points="1219.96 394.21 1220.85 399.38 1214.11 400.55 1215 405.72"/><polyline class="cls-1" points="353 1164.04 353.89 1169.21 347.15 1170.37 348.04 1175.55"/><polyline class="cls-2" points="981.64 1195.62 982.53 1200.79 975.79 1201.95 976.68 1207.13"/><polyline class="cls-2" points="640.37 29.21 641.26 34.38 634.52 35.54 635.41 40.71"/><polyline class="cls-2" points="532.19 885.92 529.26 890.27 534.93 894.09 532 898.45"/><path class="cls-1" d="M423.8,359a4.92,4.92,0,0,1,1.36,3.43,4.54,4.54,0,1,1-9.07,0"/><path class="cls-1" d="M271.19,1010.22a4.92,4.92,0,0,1,1.36,3.43,4.54,4.54,0,1,1-9.07,0"/><path class="cls-2" d="M1268.32,827.53a4.92,4.92,0,0,1-2.69,2.53,4.54,4.54,0,1,1-3.34-8.43"/><path class="cls-2" d="M144.33,875a4.92,4.92,0,0,1-2.38,2.82,4.54,4.54,0,1,1-4.28-8"/><path class="cls-2" d="M763.53,171.56a4.92,4.92,0,0,1,2.33-2.86,4.54,4.54,0,1,1,4.42,7.92"/><path class="cls-2" d="M982.33,855.7a4.92,4.92,0,0,1,1.36,3.43,4.54,4.54,0,1,1-9.07,0"/><path class="cls-2" d="M791,1023a4.92,4.92,0,0,1-2.28,2.9,4.54,4.54,0,1,1-4.56-7.84"/><path class="cls-2" d="M1194.92,148.31a4.92,4.92,0,0,1,1.36,3.43,4.54,4.54,0,1,1-9.07,0"/><polyline class="cls-1" points="1100.86 289.45 1100.86 279.79 1091.06 279.79"/><polyline class="cls-2" points="962.31 43.91 958.69 34.96 949.6 38.64"/><polyline class="cls-1" points="67.52 166.68 63.86 170.44 58.95 165.67 55.3 169.44"/><polyline class="cls-1" points="275.77 311.77 280.88 303.57 272.56 298.39"/><polyline class="cls-1" points="1031.73 511.33 1023.01 507.17 1018.79 516.01"/><polyline class="cls-2" points="529.26 699.16 520.54 695 516.32 703.84"/><polyline class="cls-2" points="1057.28 1053.02 1048.56 1048.85 1044.34 1057.7"/><polyline class="cls-1" points="1196.65 625.77 1196.65 616.11 1186.85 616.11"/><polyline class="cls-1" points="574.45 1225.88 574.45 1216.22 564.65 1216.22"/><polyline class="cls-1" points="122.86 1146.72 122.86 1137.06 113.06 1137.06"/><polyline class="cls-2" points="1234.86 1185.2 1234.86 1175.55 1225.06 1175.55"/></svg>