<svg id="Capa_1" data-name="Capa 1" xmlns="http://www.w3.org/2000/svg" xmlns:xlink="http://www.w3.org/1999/xlink" viewBox="0 0 100 100"><defs><style>.cls-1{opacity:0.8;}.cls-2{fill:#fff;}.cls-3{fill:#efefef;}.cls-4{fill:none;stroke:#7c7c7c;stroke-linecap:round;stroke-miterlimit:10;stroke-width:3px;}.cls-5{fill:#2062af;}.cls-6{fill:#3c9cd7;}.cls-7{fill:url(#Degradado_sin_nombre_5);}.cls-8{fill:url(#Degradado_sin_nombre_5-2);}.cls-9{fill:url(#Degradado_sin_nombre_3);}.cls-10{opacity:0.05;isolation:isolate;}.cls-11{fill:url(#Degradado_sin_nombre_3-2);}</style><linearGradient id="Degradado_sin_nombre_5" x1="-2190.3" y1="-1341.4" x2="-2190.3" y2="-1342.84" gradientTransform="translate(10213.88 6279.77) scale(4.64)" gradientUnits="userSpaceOnUse"><stop offset="0.39" stop-color="#d1d3d4" stop-opacity="0"/><stop offset="1" stop-color="#d1d3d4"/></linearGradient><linearGradient id="Degradado_sin_nombre_5-2" x1="-2188.5" y1="-1342.12" x2="-2188.5" y2="-1343.62" xlink:href="#Degradado_sin_nombre_5"/><linearGradient id="Degradado_sin_nombre_3" x1="-2191.17" y1="-1340.76" x2="-2187.71" y2="-1340.76" gradientTransform="translate(10213.88 6279.77) scale(4.64)" gradientUnits="userSpaceOnUse"><stop offset="0" stop-color="#e8e7e5"/><stop offset="1" stop-color="#fff"/></linearGradient><linearGradient id="Degradado_sin_nombre_3-2" x1="-2191.33" y1="-1343.25" x2="-2187.57" y2="-1343.25" xlink:href="#Degradado_sin_nombre_3"/></defs><title>Mesa de trabajo 53 copia 5</title><g class="cls-1"><circle class="cls-2" cx="50.13" cy="49.75" r="40.96"/></g><path class="cls-3" d="M49.87,12.11a38,38,0,1,1-38,38,38,38,0,0,1,38-38m0-3a41,41,0,1,0,41,41,41,41,0,0,0-41-41Z"/><path class="cls-4" d="M51.79,10.94c20.7.56,38.13,17.76,37.49,41.24"/><path class="cls-5" d="M62.27,65.42,51,68.45l-11.28-3-2.6-28.2H64.87Z"/><path class="cls-6" d="M51,39.5V66h0l9.13-2.46L62.25,39.5H51Z"/><path d="M44.58,33.07V31.4H47V29.56H42.75v5.19H47V33.07Zm6.85-1.68h1.71V29.56H48.86V31.4c.57.57.87.85,1.7,1.68h-1.7v1.68h4.29V33.07L51.44,31.4Zm6.07,0h1.71V29.56H54.94V31.4c.57.57.87.85,1.7,1.68h-1.7v1.68h4.29V33.07L57.51,31.4Z"/><path class="cls-2" d="M51,46.55,42.9,49.91l.27,3.33L51,49.91l8.3-3.55L59.62,43,51,46.55Z"/><path class="cls-7" d="M42.9,49.91l.27,3.33L51,49.91V46.55Z"/><path class="cls-8" d="M59.62,43,51,46.55v3.35l8.3-3.55Z"/><path class="cls-9" d="M42.92,49.91l.27,3.33,12,0-.27,4.44L51,58.83l-3.79-1-.23-2.75H43.41l.46,5.32L51,62.54l7.08-2.07L59,49.91Z"/><path class="cls-10" d="M51,49.91H42.9l.27,3.33,7.81,0V49.91Zm0,8.9h0l-3.79-1-.23-2.75H43.4l.46,5.32L51,62.54Z"/><path class="cls-11" d="M42.18,43H59.62l-.34,3.41H42.6L42.18,43Z"/><path class="cls-10" d="M51,43h-8.8l.42,3.41H51V43Z"/></svg>