<svg id="Capa_1" data-name="Capa 1" xmlns="http://www.w3.org/2000/svg" viewBox="0 0 100 100"><defs><style>.cls-1{opacity:0.8;}.cls-2{fill:#fff;}.cls-3{fill:#ff7c23;}.cls-4{fill:none;stroke:#7c7c7c;stroke-linecap:round;stroke-miterlimit:10;stroke-width:3px;}</style></defs><title>Mesa de trabajo 53 copia</title><g class="cls-1"><circle class="cls-2" cx="50.6" cy="51.54" r="40.96"/></g><path class="cls-3" d="M54.84,46.67c0-.13,0-.2.2-.2H57.6c.13,0,.2,0,.2.2V59.59c0,.13,0,.2-.2.2H55.07c-.16,0-.21-.08-.21-.21V46.67h0ZM54.66,43A1.67,1.67,0,0,1,58,43a1.56,1.56,0,0,1-1.7,1.67A1.54,1.54,0,0,1,54.66,43Zm-7.37,9.1c-.46-1.82-1.54-5.78-1.95-7.69h0c-.34,1.92-1.21,5.16-1.9,7.69Zm-4.55,2.65-1.29,4.91c0,.13-.08.16-.25.16H38.79c-.16,0-.2,0-.16-.25l4.65-16.27a5.3,5.3,0,0,0,.16-1.36c0-.11,0-.16.13-.16H47c.11,0,.16,0,.2.16l5.21,17.66c0,.13,0,.21-.13.21H49.57c-.13,0-.21,0-.25-.15L48,54.71H42.74Z"/><circle class="cls-4" cx="49.4" cy="50.6" r="40.96"/></svg>