<svg id="Capa_1" data-name="Capa 1" xmlns="http://www.w3.org/2000/svg" viewBox="0 0 100 100"><defs><style>.cls-1{opacity:0.8;}.cls-2{fill:#fff;}.cls-3{fill:#f73d8d;}.cls-4{fill:none;stroke:#7c7c7c;stroke-linecap:round;stroke-miterlimit:10;stroke-width:3px;}</style></defs><title>Mesa de trabajo 53 copia 2</title><g class="cls-1"><circle class="cls-2" cx="50.38" cy="50.69" r="40.96"/></g><path class="cls-3" d="M54.89,47.45a2.33,2.33,0,0,0-1-.16c-2.11,0-3.58,1.62-3.58,4.32,0,3.08,1.51,4.32,3.39,4.32a2.94,2.94,0,0,0,1.16-.2ZM54,44.78a7.54,7.54,0,0,1,.87,0V40.46a.15.15,0,0,1,.16-.16h2.65c.13,0,.16,0,.16.13v15.3A12.34,12.34,0,0,0,58,57.39c0,.11,0,.13-.15.2a10,10,0,0,1-4.29,1c-3.62,0-6.2-2.24-6.2-6.81,0-3.91,2.57-7,6.71-7ZM44.42,58.09c0,.16,0,.21-.21.21H41.68c-.16,0-.21-.08-.21-.21V40.51c0-.16.08-.21.21-.21h2.54c.13,0,.2,0,.2.2Z"/><circle class="cls-4" cx="50.82" cy="50.69" r="40.96"/></svg>