<svg id="Capa_1" data-name="Capa 1" xmlns="http://www.w3.org/2000/svg" viewBox="0 0 100 100"><defs><style>.cls-1{opacity:0.8;}.cls-2{fill:#fff;}.cls-3{fill:#25cafc;}.cls-4{fill:none;stroke:#7c7c7c;stroke-linecap:round;stroke-miterlimit:10;stroke-width:3px;}</style></defs><title>Mesa de trabajo 53 copia 8</title><g class="cls-1"><circle class="cls-2" cx="52.32" cy="50.56" r="40.96"/></g><path class="cls-3" d="M57.84,47.12c-1.29,0-1.74.65-1.74,1.19s.29,1,2,1.9c2.57,1.24,3.37,2.44,3.37,4.19,0,2.62-2,4-4.7,4a7.12,7.12,0,0,1-3.36-.7c-.11,0-.13-.13-.13-.26V55.06c0-.16.08-.21.2-.13a6.08,6.08,0,0,0,3.29,1c1.29,0,1.83-.54,1.83-1.28s-.38-1.11-2-2c-2.32-1.11-3.29-2.24-3.29-4.12,0-2.11,1.65-3.86,4.52-3.86a7.53,7.53,0,0,1,2.93.46.36.36,0,0,1,.16.33v2.24c0,.13-.08.21-.25.16a5.53,5.53,0,0,0-2.85-.74ZM43.77,49.07c.38,0,.67,0,1.33,0,1.92,0,3.72-.67,3.72-3.27,0-2.08-1.29-3.13-3.47-3.13-.65,0-1.28,0-1.57,0Zm-2.91-8.69c0-.11.23-.2.36-.2,1,0,2.6-.08,4.22-.08,4.53,0,6.3,2.49,6.3,5.66,0,4.16-3,5.94-6.71,5.94-.62,0-.83,0-1.28,0V58c0,.13,0,.2-.2.2H41c-.13,0-.2,0-.2-.2V40.38Z"/><circle class="cls-4" cx="51.79" cy="50.56" r="40.96"/></svg>