<svg id="Capa_1" data-name="Capa 1" xmlns="http://www.w3.org/2000/svg" viewBox="0 0 1366 1262.32"><defs><style>.cls-1,.cls-2{fill:none;stroke:#f2eee2;stroke-miterlimit:10;stroke-width:3px;}.cls-1{opacity:0.5;}</style></defs><title>formas</title><line class="cls-1" x1="990.93" y1="1054.11" x2="996.81" y2="1063.08"/><line class="cls-1" x1="1225.4" y1="481.57" x2="1231.28" y2="490.54"/><line class="cls-2" x1="254.49" y1="1158.41" x2="248.65" y2="1167.4"/><polyline class="cls-2" points="639.97 1021.63 639.97 1026.88 646.8 1026.88 646.8 1032.13"/><polyline class="cls-1" points="854.73 1184.66 855.62 1189.83 848.88 1190.99 849.77 1196.16"/><polyline class="cls-2" points="297.86 1014.35 294.93 1018.71 300.6 1022.52 297.67 1026.88"/><polyline class="cls-1" points="1139.48 1129.92 1136.55 1134.27 1142.23 1138.09 1139.3 1142.44"/><path class="cls-2" d="M498,987.25a4.92,4.92,0,0,1-3.11,2,4.54,4.54,0,1,1-1.73-8.9"/><path class="cls-1" d="M825.07,217.28a4.92,4.92,0,0,1,1.36,3.43,4.54,4.54,0,1,1-9.07,0"/><polyline class="cls-2" points="502.72 1167.73 502.72 1158.08 492.92 1158.08"/><polyline class="cls-2" points="106.37 880.85 98.71 886.74 104.68 894.51"/><polyline class="cls-2" points="1108.16 978.45 1109.8 968.94 1100.14 967.27"/><polyline class="cls-1" points="1000.34 374.99 991.63 370.83 987.4 379.68"/><polyline class="cls-2" points="1264.84 1101.14 1271.98 1107.64 1278.58 1100.4"/><line class="cls-2" x1="791.24" y1="779.94" x2="793.8" y2="790.35"/><line class="cls-2" x1="916.36" y1="486.05" x2="922.25" y2="495.02"/><line class="cls-2" x1="1281.88" y1="827.15" x2="1275.29" y2="835.6"/><line class="cls-2" x1="293.92" y1="128.41" x2="288.07" y2="137.4"/><line class="cls-1" x1="1270.39" y1="91.69" x2="1264.55" y2="100.67"/><polyline class="cls-1" points="157.28 664.63 157.28 669.88 164.13 669.88 164.13 675.12"/><polyline class="cls-1" points="1085.38 173.7 1085.38 178.95 1092.22 178.95 1092.22 184.2"/><polyline class="cls-2" points="377.51 249.04 382.27 246.82 379.39 240.62 384.15 238.41"/><polyline class="cls-2" points="798.37 591.97 799.26 597.14 792.52 598.3 793.41 603.48"/><polyline class="cls-2" points="673.52 21.5 673.53 26.75 680.37 26.72 680.39 31.97"/><path class="cls-1" d="M93.38,295.15A4.92,4.92,0,0,1,91,298a4.54,4.54,0,1,1-4.28-8"/><path class="cls-2" d="M1008,842.23a4.92,4.92,0,0,1,1.36,3.43,4.54,4.54,0,1,1-9.07,0"/><polyline class="cls-2" points="589.89 191.57 589.89 181.91 580.09 181.91"/><polyline class="cls-2" points="1043.28 575.57 1046.16 566.35 1036.81 563.43"/><polyline class="cls-2" points="669.54 579.74 660.83 575.57 656.61 584.42"/><polyline class="cls-2" points="620.82 817.45 620.82 807.79 611.02 807.79"/><polyline class="cls-2" points="1222.29 612.29 1222.29 602.63 1212.49 602.63"/></svg>