<svg id="Capa_1" data-name="Capa 1" xmlns="http://www.w3.org/2000/svg" xmlns:xlink="http://www.w3.org/1999/xlink" viewBox="0 0 260 266.93"><defs><style>.cls-1{opacity:0.8;}.cls-2{fill:#fff;}.cls-12,.cls-3{fill:none;}.cls-4{fill:#7c7c7c;}.cls-5{fill:#686868;}.cls-6{fill:url(#Degradado_sin_nombre_2);}.cls-7{fill:url(#Degradado_sin_nombre_2-2);}.cls-8{fill:url(#Degradado_sin_nombre_4);}.cls-9{opacity:0.05;isolation:isolate;}.cls-10{fill:url(#Degradado_sin_nombre_4-2);}.cls-11{fill:#efefef;}.cls-12{stroke:#7c7c7c;stroke-linecap:round;stroke-miterlimit:10;stroke-width:10px;}</style><linearGradient id="Degradado_sin_nombre_2" x1="-704.63" y1="-1718.14" x2="-704.63" y2="-1721.71" gradientTransform="translate(3391.18 8119.2) scale(4.64)" gradientUnits="userSpaceOnUse"><stop offset="0.39" stop-color="#d1d3d4" stop-opacity="0"/><stop offset="1" stop-color="#d1d3d4"/></linearGradient><linearGradient id="Degradado_sin_nombre_2-2" x1="-700.17" y1="-1719.92" x2="-700.17" y2="-1723.63" xlink:href="#Degradado_sin_nombre_2"/><linearGradient id="Degradado_sin_nombre_4" x1="-706.78" y1="-1716.54" x2="-698.2" y2="-1716.54" gradientTransform="translate(3391.18 8119.2) scale(4.64)" gradientUnits="userSpaceOnUse"><stop offset="0" stop-color="#e8e7e5"/><stop offset="1" stop-color="#fff"/></linearGradient><linearGradient id="Degradado_sin_nombre_4-2" x1="-707.17" y1="-1722.72" x2="-697.86" y2="-1722.72" xlink:href="#Degradado_sin_nombre_4"/></defs><title>Mesa de trabajo 30 copia 5</title><g class="cls-1"><circle class="cls-2" cx="130.42" cy="133.28" r="103.41"/></g><path class="cls-3" d="M75.21,78.23H185.68V188.7H75.21Z"/><path class="cls-4" d="M158.38,174.11l-27.94,7.52-27.94-7.52-6.45-69.84h68.77Z"/><path class="cls-5" d="M130.44,109.92v65.71l.06,0,22.61-6.09,5.22-59.64H130.44Z"/><path class="cls-4" d="M114.59,94V89.84h6.07V85.29H110V98.15h10.61V94Zm17-4.16h4.24V85.29H125.19v4.55c1.42,1.42,2.16,2.1,4.21,4.15h-4.21v4.15H135.8V94l-4.24-4.16Zm15,0h4.24V85.29H140.23v4.55c1.42,1.42,2.16,2.1,4.22,4.15h-4.22v4.15h10.62V94l-4.24-4.16Z"/><path class="cls-2" d="M130.42,127.38l-20,8.33.66,8.25,19.33-8.27L151,126.9l.85-8.43-21.42,8.92Z"/><path class="cls-6" d="M110.42,135.71l.66,8.25,19.33-8.27v-8.31Z"/><path class="cls-7" d="M151.84,118.46l-21.42,8.92v8.31L151,126.9Z"/><path class="cls-8" d="M110.45,135.71l.66,8.25,29.66.09-.66,11-9.76,2.75L121,155.42l-.57-6.82h-8.72l1.14,13.17L130.45,167,148,161.87l2.27-26.16Z"/><path class="cls-9" d="M130.42,135.71h-20l.66,8.25,19.33.06v-8.31Zm0,22.05-.09,0-9.38-2.37-.57-6.82h-8.72l1.14,13.17L130.42,167Z"/><path class="cls-10" d="M108.62,118.46h43.21L151,126.9H109.66l-1-8.43Z"/><path class="cls-9" d="M130.42,118.46h-21.8l1,8.43h20.75v-8.43Z"/><path class="cls-11" d="M129.76,40.66a93.41,93.41,0,1,1-93.41,93.41,93.52,93.52,0,0,1,93.41-93.41m0-10A103.41,103.41,0,1,0,233.17,134.07,103.41,103.41,0,0,0,129.76,30.66Z"/><path class="cls-12" d="M131.23,35.71c57.08.86,98.44,44.83,96.82,104.07"/></svg>