<svg id="Capa_1" data-name="Capa 1" xmlns="http://www.w3.org/2000/svg" viewBox="0 0 260 266.93"><defs><style>.cls-1{opacity:0.8;}.cls-2{fill:#fff;}.cls-3{fill:#efefef;}.cls-4{fill:none;stroke:#e44d26;stroke-linecap:round;stroke-miterlimit:10;stroke-width:10px;}.cls-5{fill:#e44d26;}.cls-6{fill:#f16529;}.cls-7{fill:#ebebeb;}</style></defs><title>Mesa de trabajo 30 copia 15</title><g class="cls-1"><circle class="cls-2" cx="127.72" cy="134.95" r="103.41"/></g><path class="cls-3" d="M127.72,41.54A93.41,93.41,0,1,1,34.31,135a93.52,93.52,0,0,1,93.41-93.41m0-10A103.41,103.41,0,1,0,231.13,135,103.41,103.41,0,0,0,127.72,31.54Z"/><path class="cls-4" d="M129,35.63c57.08.86,98.44,44.83,96.82,104.07"/><path class="cls-5" d="M161.58,105.94l-6.31,70.69-28.36,7.86-28.29-7.85-6.3-70.7h69.26Z"/><path class="cls-6" d="M127,178.48l22.92-6.35,5.39-60.41H127Z"/><path class="cls-7" d="M114.69,129.06H127v-8.67H105.21l.21,2.33,2.13,23.9H127v-8.67H115.48Zm2,21.89h-8.7l1.21,13.61,17.76,4.93h0v-9h0l-9.66-2.61-.62-6.92Z"/><path d="M98.76,86.73h4.41v4.35h4V86.73h4.41V99.91H107.2V95.5h-4v4.41H98.76V86.73ZM117.4,91.1h-3.88V86.73h12.17V91.1h-3.88v8.81H117.4V91.1h0Zm10.22-4.37h4.59L135,91.36l2.82-4.63h4.6V99.91h-4.39V93.38l-3,4.69H135l-3-4.69v6.53h-4.31Zm17,0h4.41v8.83h6.2v4.36H144.66V86.73Z"/><path class="cls-2" d="M126.92,146.61H137.6l-1,11.25-9.67,2.61v9l17.78-4.93.13-1.47,2-22.83.21-2.33H126.92v8.67Zm0-17.57v0h20.94l.17-1.95.4-4.4.21-2.33H126.92V129Z"/></svg>