<svg id="Capa_1" data-name="Capa 1" xmlns="http://www.w3.org/2000/svg" viewBox="0 0 260 266.93"><defs><style>.cls-1{opacity:0.8;}.cls-2{fill:#fff;}.cls-3{fill:#ff7c23;}.cls-4{fill:none;stroke:#ff7c23;stroke-linecap:round;stroke-miterlimit:10;stroke-width:10px;}</style></defs><title>Mesa de trabajo 30 copia 10</title><g class="cls-1"><circle class="cls-2" cx="131.28" cy="135.25" r="103.41"/></g><path class="cls-3" d="M145.21,124c0-.33.12-.5.5-.5h6.49c.33,0,.5.12.5.5v32.6c0,.33-.08.5-.5.5h-6.41c-.41,0-.54-.21-.54-.54V124h0Zm-.45-9.38a4.22,4.22,0,0,1,8.43,0,4,4,0,0,1-4.3,4.21A3.88,3.88,0,0,1,144.76,114.63Zm-18.6,23C125,133,122.28,123,121.24,118.18h-.08c-.87,4.83-3.06,13-4.79,19.42Zm-11.49,6.69-3.26,12.4c-.08.33-.21.41-.62.41h-6.07c-.41,0-.5-.12-.41-.62L116,115.41a13.39,13.39,0,0,0,.41-3.43c0-.29.12-.41.33-.41h8.68c.29,0,.41.08.5.41l13.14,44.59c.08.33,0,.54-.33.54h-6.86c-.33,0-.54-.08-.62-.37L127.9,144.3H114.67Z"/><circle class="cls-4" cx="129.61" cy="135.57" r="103.41"/></svg>