<svg id="Capa_1" data-name="Capa 1" xmlns="http://www.w3.org/2000/svg" viewBox="0 0 260 266.93"><defs><style>.cls-1{opacity:0.8;}.cls-2{fill:#fff;}.cls-3{fill:#7c7c7c;}.cls-4{fill:none;stroke:#7c7c7c;stroke-linecap:round;stroke-miterlimit:10;stroke-width:10px;}</style></defs><title>Mesa de trabajo 30 copia 7</title><g class="cls-1"><circle class="cls-2" cx="130.72" cy="134.63" r="103.41"/></g><path class="cls-3" d="M139.1,121.09l4.13-4.13q1.79-1.79,3.41-3.14t3.23-2.79a37.07,37.07,0,0,1,5.93-4.31,9.48,9.48,0,0,1,4.49-1.26,7.86,7.86,0,0,1,5.48,2.25,6.83,6.83,0,0,1,2.43,5.12,9.51,9.51,0,0,1-1.17,4.4,45.74,45.74,0,0,1-4.22,6.2q-14,18.33-14,23.72a2.06,2.06,0,0,0,2.34,2.34,7,7,0,0,0,4-1.53,38,38,0,0,0,5.57-5.3q1.79-2,4.4-5.39t4.58-6.29a19.26,19.26,0,0,1,3.32-4,4.88,4.88,0,0,1,3.14-1.08,4.29,4.29,0,0,1,4.31,4.31q0,3.42-3.14,9.07a72.73,72.73,0,0,1-8.18,11.59,55.82,55.82,0,0,1-12.85,11.68q-6.56,4.13-11.95,4.13a11,11,0,0,1-8.27-3.32,11.72,11.72,0,0,1-3.23-8.53,28,28,0,0,1,.45-5.12,34.65,34.65,0,0,1,1.35-5,36.81,36.81,0,0,1,2.52-5.57,70.28,70.28,0,0,1,4.13-6.56q.18-.36.9-1.44a59.6,59.6,0,0,0-9.25,9.07,86,86,0,0,0-9.25,14.1,48.49,48.49,0,0,1-5.21,7.64,6,6,0,0,1-4.49,1.89,6.17,6.17,0,0,1-4.76-2.07,7.31,7.31,0,0,1-1.89-5.12,16.59,16.59,0,0,1,.45-3.86,31.35,31.35,0,0,1,1.89-5.12A54.54,54.54,0,0,1,112,142.2a40.17,40.17,0,0,1,2.52-4.58l3.41-5.93a8.32,8.32,0,0,0,1.08-1.8,64.61,64.61,0,0,0-7,6.56q-3.42,3.69-6.56,7.64a74,74,0,0,0-5.57,8,65,65,0,0,0-4,7.82q-2.16,5-3.86,6.74a6,6,0,0,1-4.4,1.71A5.62,5.62,0,0,1,83,166.19a8.42,8.42,0,0,1-1.8-5.57q0-6.83,6.65-23.54a160.72,160.72,0,0,1,8.17-17.61,114.29,114.29,0,0,1,8.71-13.84,25.18,25.18,0,0,1,4.31-4.58,6.43,6.43,0,0,1,4-1.35,5.69,5.69,0,0,1,4,1.62,5.24,5.24,0,0,1,1.71,4,10,10,0,0,1-.81,3.77,54.13,54.13,0,0,1-3.86,6.83q-.82,1.39-1.62,2.78-1.08,1.89-2.69,4.76l-2,4q5.39-6.47,9.43-11a90.21,90.21,0,0,1,7.1-7.19,28.44,28.44,0,0,1,5.48-4,9.74,9.74,0,0,1,4.4-1.26,6,6,0,0,1,4.31,1.71,5.6,5.6,0,0,1,1.8,4.22,10.66,10.66,0,0,1-.72,3.59,46.87,46.87,0,0,1-3.05,6.11l-3.77,6.83-1.44,2.69,2.16-2.34q3.23-3.41,5.57-5.75Z"/><circle class="cls-4" cx="130.72" cy="134.63" r="103.41"/></svg>