<svg id="Capa_1" data-name="Capa 1" xmlns="http://www.w3.org/2000/svg" viewBox="0 0 260 266.93"><defs><style>.cls-1{opacity:0.8;}.cls-2{fill:#fff;}.cls-3{fill:#fdb300;}.cls-4{fill:#7c7c7c;}.cls-5{fill:#686868;}.cls-6{fill:#919191;}.cls-7{fill:#efefef;}.cls-8{fill:none;stroke:#7c7c7c;stroke-linecap:round;stroke-miterlimit:10;stroke-width:10px;}</style></defs><title>Mesa de trabajo 30 copia 2</title><g class="cls-1"><circle class="cls-2" cx="133" cy="134.67" r="98.52"/></g><polygon class="cls-3" points="130.41 88.74 102.2 91.72 80.37 121.03 130.41 179.29 180.44 121.03 158.6 91.72 130.41 88.74"/><polygon class="cls-4" points="80.37 121.03 130.41 179.29 100.64 121.03 80.37 121.03"/><polygon class="cls-4" points="160.17 121.03 130.41 179.29 180.44 121.03 160.17 121.03"/><polygon class="cls-5" points="100.64 121.03 130.41 179.29 160.17 121.03 100.64 121.03"/><polygon class="cls-4" points="102.2 91.72 100.64 121.03 130.41 88.74 102.2 91.72"/><polygon class="cls-4" points="160.17 121.03 158.6 91.72 130.41 88.74 160.17 121.03"/><polygon class="cls-5" points="160.17 121.03 180.44 121.03 158.6 91.72 160.17 121.03"/><polygon class="cls-5" points="80.37 121.03 100.64 121.03 102.2 91.72 80.37 121.03"/><polygon class="cls-6" points="130.41 88.74 100.64 121.03 160.17 121.03 130.41 88.74"/><path class="cls-7" d="M131.73,41.26a93.41,93.41,0,1,1-93.41,93.41,93.52,93.52,0,0,1,93.41-93.41m0-10A103.41,103.41,0,1,0,235.14,134.67,103.41,103.41,0,0,0,131.73,31.26Z"/><path class="cls-8" d="M132.66,36.15c54.64,0,97.34,44.53,97.34,99.22s-42.39,97.28-97,97.28c-50.53,0-92.52-36.34-98.51-85.3"/></svg>