<svg id="Layer_1" data-name="Layer 1" xmlns="http://www.w3.org/2000/svg" viewBox="0 0 300 300"><defs><style>.cls-1{fill:#fff;}</style></defs><title>Artboard 1 copy</title><path class="cls-1" d="M42.09,242.73l117.27,47.81a12.93,12.93,0,0,0,16.86-7.09L262.45,71.94a13,13,0,0,0-7.09-16.86L138.08,7.27a12.95,12.95,0,0,0-16.86,7.09L35,225.87a12.93,12.93,0,0,0,7.09,16.86ZM169.74,280.8a5.94,5.94,0,0,1-7.74,3.26L44.73,236.25a5.93,5.93,0,0,1-3.25-7.74l10.35-25.4L180.1,255.4ZM256,69.3,182.74,248.92,54.47,196.63,127.7,17a5.93,5.93,0,0,1,7.74-3.25L252.71,61.56A5.94,5.94,0,0,1,256,69.3Z"/><path class="cls-1" d="M112.6,231.42a12.07,12.07,0,1,0,6.57,6.5A12,12,0,0,0,112.6,231.42Zm-9.23,13.14a5.07,5.07,0,1,1,2.76,2.72A5,5,0,0,1,103.37,244.56Z"/></svg>