<svg id="Layer_1" data-name="Layer 1" xmlns="http://www.w3.org/2000/svg" viewBox="0 0 300 300"><defs><style>.cls-1{fill:#fff;}</style></defs><title>Artboard 3 copy</title><path class="cls-1" d="M289.24,116.59,153.92,15.48a11.82,11.82,0,0,0-14.31.19L13.17,115.24A3.47,3.47,0,0,0,11.8,118V279.87l-1,.63h1.07a3.5,3.5,0,0,0,3.46,3h270a3.5,3.5,0,0,0,3.5-3.5V118a3.46,3.46,0,0,0-.11-.86ZM149.75,21.07l129.8,97L213,170.24c.09-.44.17-.89.25-1.34.05-.29.11-.57.16-.87.15-.92.29-1.85.39-2.8a65.16,65.16,0,0,0-35-65.06,68.94,68.94,0,0,0-21.23-6.69q-1.2-.17-2.41-.3l-.88-.08L152.73,93l-1-.06-1.37-.07-1.09,0-1.32,0h-.81c-1.16,0-2.31,0-3.47.1l-.34,0q-1.67.1-3.33.28l-.49.05c-1.13.13-2.25.29-3.37.47l-.68.11q-1.66.29-3.3.65l-.58.14c-1.14.27-2.28.55-3.41.87h0c-1.12.32-2.24.68-3.34,1.06l-.54.18q-1.59.56-3.16,1.19l-.61.25c-1,.44-2.09.89-3.11,1.38l-.41.2q-1.52.73-3,1.53l-.24.13c-1,.55-2,1.14-3,1.74l-.53.32q-1.43.89-2.82,1.86l-.51.36c-.95.67-1.88,1.36-2.79,2.07l-.22.18q-1.33,1.05-2.61,2.18l-.35.3q-1.29,1.14-2.51,2.35l-.47.46q-1.21,1.21-2.37,2.48l-.38.43c-.8.9-1.58,1.81-2.34,2.76a63.29,63.29,0,0,0-14.29,39c0,1,0,2.05,0,3.08,0,.21,0,.41,0,.62q.05,1.49.18,3c0,.19,0,.37.05.56,0,.4.07.8.11,1.2l-58-48.27L143.93,21.15A4.81,4.81,0,0,1,149.75,21.07Zm14.82,138.22a22.19,22.19,0,1,1-22.19-22.19A22.21,22.21,0,0,1,164.57,159.29Zm-25.69,39.35-12.21,7.47L87.2,173.27l-.17-.71c-.07-.3-.14-.6-.21-.9s-.14-.68-.21-1-.12-.6-.18-.9-.12-.69-.18-1-.1-.6-.15-.9-.1-.7-.14-1.05-.08-.59-.11-.89-.07-.73-.11-1.09-.06-.57-.08-.86-.05-.77-.08-1.16,0-.53,0-.79c0-.43,0-.87,0-1.31,0-.22,0-.43,0-.65q0-1,0-2a56.44,56.44,0,0,1,12.75-34.78,63.28,63.28,0,0,1,58.3-22.86,62,62,0,0,1,19.08,6,58.13,58.13,0,0,1,31.24,58.05q-.12,1.12-.29,2.18c0,.24-.09.46-.13.69-.08.47-.16.93-.26,1.38-.06.27-.13.53-.19.8s-.18.79-.29,1.17-.17.55-.25.82-.21.71-.33,1.05-.2.53-.3.8-.24.65-.37,1-.23.51-.35.77-.27.6-.41.89-.26.49-.4.73-.3.55-.46.82-.3.46-.44.69-.29.45-.44.66l-8.49,6.66-.42.15-.48.16L192,186l-.42.12-.49.12-.35.08-.46.08-.27,0-.41.06-.19,0-.33,0H189l-.25,0h-.14l-.68.07a11.56,11.56,0,0,1-8.87-2,17.51,17.51,0,0,1-7.5-14.78V127.75h-7v12.59a29.19,29.19,0,1,0,1,36.72,23.62,23.62,0,0,0,9.67,13.5c.38.25.76.49,1.15.71l.34.19.86.46.35.17c.37.17.73.34,1.1.49l.07,0c.39.16.79.3,1.18.43l.35.11.87.24.37.09q.53.12,1.05.21l.15,0h0l-.38.3h0l-16,12.56-14-8.09a13.5,13.5,0,0,0-13.83.16ZM81,177.22h0l10.4,8.65h0l29,24.1L18.8,272.11V125.46ZM194.12,194h0l3.15-2.47a25.34,25.34,0,0,0,9.62-7.55h0l74.9-58.74V273.32l-108.6-63ZM25,276.5l105-64.22h0l12.57-7.69a6.55,6.55,0,0,1,6.71-.08l124.18,72Z"/></svg>