<svg id="Layer_1" data-name="Layer 1" xmlns="http://www.w3.org/2000/svg" viewBox="0 0 59 59"><defs><style>.cls-1{fill:#fff;}</style></defs><title>Artboard 1 copy</title><path class="cls-1" d="M41.78,3.16H16.39a1.52,1.52,0,0,0-1.52,1.52V54.32a1.52,1.52,0,0,0,1.52,1.52h25.4a1.52,1.52,0,0,0,1.52-1.52V4.68A1.52,1.52,0,0,0,41.78,3.16Zm-25.4.6h25.4a.92.92,0,0,1,.92.92V9.12H15.47V4.68A.92.92,0,0,1,16.39,3.76Zm26.31,6V48.87H15.47V9.72Zm-.92,45.53H16.39a.92.92,0,0,1-.92-.92V49.47H42.7v4.86A.92.92,0,0,1,41.78,55.24Z"/><path class="cls-1" d="M29.5,50.2a2.22,2.22,0,1,0,2.22,2.22A2.22,2.22,0,0,0,29.5,50.2Zm0,3.83a1.62,1.62,0,1,1,1.62-1.62A1.62,1.62,0,0,1,29.5,54Z"/></svg>