<svg id="Capa_1" data-name="Capa 1" xmlns="http://www.w3.org/2000/svg" viewBox="0 0 260 266.93"><defs><style>.cls-1{opacity:0.8;}.cls-2{fill:#fff;}.cls-3{fill:#7c7c7c;}.cls-4{fill:#efefef;}.cls-5{fill:none;stroke:#7c7c7c;stroke-linecap:round;stroke-miterlimit:10;stroke-width:10px;}</style></defs><title>Mesa de trabajo 30 copia 3</title><g class="cls-1"><circle class="cls-2" cx="131" cy="134.59" r="95.02"/></g><path class="cls-3" d="M152.26,134.76a18.28,18.28,0,0,0,3.06-.08c0-.29.08-.5.08-.7,0-2.23-1.07-6.36-5.37-6.36-4,0-5.66,3.47-6.07,7.15h8.31Zm-8.39,5.66c.08,5.58,2.73,9.34,9,9.34a16.17,16.17,0,0,0,6.74-1.28c.29-.12.5-.08.5.29v5.17a.88.88,0,0,1-.41.83,18.74,18.74,0,0,1-8.31,1.57c-10.91,0-15-8.06-15-17,0-9.75,5-17.73,13.93-17.73s12.15,7.56,12.15,13.72a20.9,20.9,0,0,1-.33,4.38.61.61,0,0,1-.54.54,59.82,59.82,0,0,1-6.9.29H143.87Zm-22.15-4.21c-1.16-4.59-4-14.59-5-19.42h-.08c-.87,4.83-3.14,13-4.83,19.42Zm-11.61,6.69-3.26,12.36c-.08.33-.21.45-.62.45h-6.07c-.41,0-.5-.12-.41-.62l11.74-41a12.67,12.67,0,0,0,.41-3.39c0-.29.12-.41.33-.41h8.68c.29,0,.41.08.5.41l13.14,44.51c.08.33,0,.54-.33.54h-6.82a.56.56,0,0,1-.62-.41l-3.39-12.4H110.11Z"/><path class="cls-4" d="M131,41.18a93.41,93.41,0,1,1-93.41,93.41A93.52,93.52,0,0,1,131,41.18m0-10A103.41,103.41,0,1,0,234.41,134.59,103.41,103.41,0,0,0,131,31.18Z"/><path class="cls-5" d="M131,36c54.12,0,98,44.07,98,98.42s-43.88,98.42-98,98.42"/></svg>