<svg id="Capa_1" data-name="Capa 1" xmlns="http://www.w3.org/2000/svg" xmlns:xlink="http://www.w3.org/1999/xlink" viewBox="0 0 260 266.93"><defs><style>.cls-1{opacity:0.8;}.cls-2{fill:#fff;}.cls-3{fill:#efefef;}.cls-4{fill:none;stroke:#2062af;stroke-linecap:round;stroke-miterlimit:10;stroke-width:10px;}.cls-5{fill:#2062af;}.cls-6{fill:#3c9cd7;}.cls-7{fill:url(#Degradado_sin_nombre_5);}.cls-8{fill:url(#Degradado_sin_nombre_5-2);}.cls-9{fill:url(#Degradado_sin_nombre_3);}.cls-10{opacity:0.05;isolation:isolate;}.cls-11{fill:url(#Degradado_sin_nombre_3-2);}</style><linearGradient id="Degradado_sin_nombre_5" x1="3124.02" y1="-1705.73" x2="3124.02" y2="-1709.34" gradientTransform="translate(-14379.2 8062.34) scale(4.64)" gradientUnits="userSpaceOnUse"><stop offset="0.39" stop-color="#d1d3d4" stop-opacity="0"/><stop offset="1" stop-color="#d1d3d4"/></linearGradient><linearGradient id="Degradado_sin_nombre_5-2" x1="3128.53" y1="-1707.53" x2="3128.53" y2="-1711.28" xlink:href="#Degradado_sin_nombre_5"/><linearGradient id="Degradado_sin_nombre_3" x1="3121.85" y1="-1704.12" x2="3130.51" y2="-1704.12" gradientTransform="translate(-14379.2 8062.34) scale(4.64)" gradientUnits="userSpaceOnUse"><stop offset="0" stop-color="#e8e7e5"/><stop offset="1" stop-color="#fff"/></linearGradient><linearGradient id="Degradado_sin_nombre_3-2" x1="3121.45" y1="-1710.36" x2="3130.86" y2="-1710.36" xlink:href="#Degradado_sin_nombre_3"/></defs><title>Mesa de trabajo 30 copia 14</title><g class="cls-1"><circle class="cls-2" cx="131.42" cy="134.21" r="103.41"/></g><path class="cls-3" d="M130.76,41.6A93.41,93.41,0,1,1,37.35,135,93.52,93.52,0,0,1,130.76,41.6m0-10A103.41,103.41,0,1,0,234.17,135,103.41,103.41,0,0,0,130.76,31.6Z"/><path class="cls-4" d="M132.23,36.65c57.08.86,98.44,44.83,96.82,104.07"/><path class="cls-5" d="M160.23,175.16,132,182.76l-28.23-7.6-6.51-70.57h69.49Z"/><path class="cls-6" d="M132,110.3v66.4l.06,0,22.85-6.15,5.27-60.26H132Z"/><path d="M116,94.21V90h6.13v-4.6H111.38v13h10.73V94.21ZM133.13,90h4.28v-4.6H126.69V90c1.44,1.44,2.18,2.12,4.26,4.2h-4.26v4.19h10.73V94.21L133.13,90Zm15.2,0h4.28v-4.6H141.89V90c1.44,1.44,2.18,2.12,4.26,4.2h-4.26v4.19h10.73V94.21L148.33,90Z"/><path class="cls-2" d="M132,127.94l-20.2,8.41.67,8.33L132,136.34l20.78-8.88.86-8.52-21.64,9Z"/><path class="cls-7" d="M111.77,136.36l.67,8.33L132,136.34v-8.39Z"/><path class="cls-8" d="M153.62,118.93l-21.64,9v8.39l20.78-8.88Z"/><path class="cls-9" d="M111.8,136.36l.67,8.33,30,.1-.67,11.11-9.86,2.78-9.48-2.39-.57-6.89H113l1.15,13.31L132,168l17.72-5.17,2.3-26.43Z"/><path class="cls-10" d="M132,136.36h-20.2l.67,8.33,19.53.06v-8.39Zm0,22.29-.1,0-9.48-2.39-.57-6.89H113l1.15,13.31L132,168Z"/><path class="cls-11" d="M109.95,118.93h43.67l-.86,8.52H111l-1.05-8.52Z"/><path class="cls-10" d="M132,118.93h-22l1.05,8.52h21v-8.52Z"/></svg>