<svg id="Capa_1" data-name="Capa 1" xmlns="http://www.w3.org/2000/svg" viewBox="0 0 260 266.93"><defs><style>.cls-1{opacity:0.8;}.cls-2{fill:#fff;}.cls-3{fill:#7c7c7c;}.cls-4{fill:#686868;}.cls-5{fill:#ebebeb;}.cls-6{fill:#efefef;}.cls-7{fill:none;stroke:#7c7c7c;stroke-linecap:round;stroke-miterlimit:10;stroke-width:10px;}</style></defs><title>Mesa de trabajo 30 copia 8</title><g class="cls-1"><circle class="cls-2" cx="130.72" cy="134.01" r="103.41"/></g><path class="cls-3" d="M102,174.35l-6.23-69.93h68.51L158,174.34l-28.05,7.78Z"/><path class="cls-4" d="M130,176.17l22.67-6.29L158,110.14H130Z"/><path class="cls-5" d="M130,136.07H118.63l-.78-8.78H130v-8.58H108.48l.21,2.3,2.11,23.63H130Zm0,22.27h0l-9.55-2.58-.61-6.84h-8.61l1.2,13.47,17.57,4.88h0Z"/><path class="cls-3" d="M102.1,85.42h4.36v4.31h4V85.42h4.36v13h-4.36V94.09h-4v4.37H102.1Zm18.44,4.32H116.7V85.42h12v4.32H124.9v8.72h-4.36V89.74Zm10.11-4.32h4.54L138,90l2.79-4.58h4.55v13H141V92l-3,4.64h-.07l-3-4.64v6.46h-4.26v-13Zm16.85,0h4.36v8.73H158v4.31H147.49Z"/><path class="cls-2" d="M130,136.07v8.58h10.56l-1,11.12L130,158.35v8.92l17.58-4.87.13-1.45,2-22.58.21-2.3H130Zm0-17.36v8.58h20.72l.17-1.93.39-4.35.21-2.3Z"/><path class="cls-6" d="M130.72,40.6A93.41,93.41,0,1,1,37.31,134,93.52,93.52,0,0,1,130.72,40.6m0-10A103.41,103.41,0,1,0,234.13,134,103.41,103.41,0,0,0,130.72,30.6Z"/><path class="cls-7" d="M132,34.69c57.08.86,98.44,44.83,96.82,104.07"/></svg>