<svg id="Capa_1" data-name="Capa 1" xmlns="http://www.w3.org/2000/svg" viewBox="0 0 260 266.93"><defs><style>.cls-1{opacity:0.8;}.cls-2{fill:#fff;}.cls-3{fill:#7c7c7c;}.cls-4{fill:none;stroke:#7c7c7c;stroke-linecap:round;stroke-miterlimit:10;stroke-width:10px;}</style></defs><title>Mesa de trabajo 30 copia</title><g class="cls-1"><circle class="cls-2" cx="131.28" cy="134.31" r="103.41"/></g><path class="cls-3" d="M148.21,121.07c0-.33.12-.5.5-.5h6.49c.33,0,.5.12.5.5v32.6c0,.33-.08.5-.5.5h-6.41c-.41,0-.54-.21-.54-.54V121.07h0Zm-.45-9.38a4.22,4.22,0,0,1,8.43,0,4,4,0,0,1-4.3,4.21A3.88,3.88,0,0,1,147.76,111.69Zm-18.6,23c-1.16-4.59-3.88-14.59-4.92-19.42h-.08c-.87,4.83-3.06,13-4.79,19.42Zm-11.49,6.69-3.26,12.4c-.08.33-.21.41-.62.41h-6.07c-.41,0-.5-.12-.41-.62L119,112.48a13.39,13.39,0,0,0,.41-3.43c0-.29.12-.41.33-.41h8.68c.29,0,.41.08.5.41l13.14,44.59c.08.33,0,.54-.33.54h-6.86c-.33,0-.54-.08-.62-.37l-3.39-12.44H117.67Z"/><circle class="cls-4" cx="129.61" cy="134.63" r="103.41"/></svg>