<svg id="Capa_1" data-name="Capa 1" xmlns="http://www.w3.org/2000/svg" viewBox="0 0 260 266.93"><defs><style>.cls-1{opacity:0.8;}.cls-2{fill:#fff;}.cls-3{fill:#f73d8d;}.cls-4{fill:none;stroke:#f73d8d;stroke-linecap:round;stroke-miterlimit:10;stroke-width:10px;}</style></defs><title>Mesa de trabajo 30 copia 9</title><g class="cls-1"><circle class="cls-2" cx="130.45" cy="135.4" r="103.41"/></g><path class="cls-3" d="M142.7,130.22a5.88,5.88,0,0,0-2.44-.41c-5.33,0-9,4.09-9,10.91,0,7.77,3.8,10.91,8.55,10.91a7.42,7.42,0,0,0,2.93-.5Zm-2.19-6.74a19,19,0,0,1,2.19.08v-11a.39.39,0,0,1,.41-.41h6.69c.33,0,.41.12.41.33v38.64a31.17,31.17,0,0,0,.21,4.17c0,.29-.08.33-.37.5a25.27,25.27,0,0,1-10.83,2.44c-9.13,0-15.66-5.66-15.66-17.19,0-9.88,6.49-17.56,16.94-17.56Zm-24.26,33.6c0,.41-.08.54-.54.54h-6.36c-.41,0-.54-.21-.54-.54V112.7c0-.41.21-.54.54-.54h6.41c.33,0,.5.12.5.5Z"/><circle class="cls-4" cx="131.55" cy="135.4" r="103.41"/></svg>