<svg id="Capa_1" data-name="Capa 1" xmlns="http://www.w3.org/2000/svg" viewBox="0 0 260 266.93"><defs><style>.cls-1{opacity:0.8;}.cls-2{fill:#fff;}.cls-3{fill:none;stroke:#7c7c7c;stroke-linecap:round;stroke-miterlimit:10;stroke-width:10px;}.cls-4{fill:#7c7c7c;}</style></defs><title>Mesa de trabajo 30 copia 4</title><g class="cls-1"><circle class="cls-2" cx="130.15" cy="134.31" r="103.41"/></g><circle class="cls-3" cx="131.09" cy="134.63" r="103.41"/><path class="cls-4" d="M164.45,92.88H98a7.36,7.36,0,0,0-7.36,7.36v66.45A7.36,7.36,0,0,0,98,174h66.45a7.36,7.36,0,0,0,7.36-7.36V100.24a7.36,7.36,0,0,0-7.36-7.36"/><path class="cls-2" d="M117.77,118.42a4.89,4.89,0,1,0-5-4.89,4.9,4.9,0,0,0,5,4.89m-10.28,26.16a16.78,16.78,0,0,0-.44,3.67c0,4.3,2.33,7.16,7.29,7.16,4.11,0,7.45-2.44,9.85-6.39l-1.47,5.88h8.17l4.67-18.72c1.17-4.74,3.43-7.2,6.85-7.2a4.08,4.08,0,0,1,4.37,4.45,8.73,8.73,0,0,1-.36,2.62l-2.41,8.6a12.93,12.93,0,0,0-.51,3.65c0,4.08,2.41,7.07,7.44,7.07,4.3,0,7.73-2.77,9.62-9.4l-3.21-1.24c-1.6,4.45-3,5.25-4.08,5.25s-1.68-.73-1.68-2.19a9.67,9.67,0,0,1,.36-2.26l2.33-8.38a18.49,18.49,0,0,0,.8-5.32c0-6.27-3.79-9.54-8.39-9.54-4.3,0-8.68,3.88-10.86,8l1.6-7.33H125l-1.75,6.46h5.83l-3.59,14.38c-2.82,6.27-8,6.37-8.65,6.23-1.07-.24-1.75-.65-1.75-2a13.75,13.75,0,0,1,.51-3.34l5.47-21.69H107.2l-1.75,6.46h5.76l-3.72,15.19"/></svg>