<svg id="Capa_1" data-name="Capa 1" xmlns="http://www.w3.org/2000/svg" viewBox="0 0 260 266.93"><defs><style>.cls-1{opacity:0.8;}.cls-2{fill:#fff;}.cls-3{fill:#7c7c7c;}.cls-4{fill:none;stroke:#7c7c7c;stroke-linecap:round;stroke-miterlimit:10;stroke-width:10px;}</style></defs><title>Mesa de trabajo 30 copia 6</title><g class="cls-1"><circle class="cls-2" cx="130.72" cy="134.73" r="103.41"/></g><path class="cls-3" d="M148.11,129c-3.26,0-4.38,1.65-4.38,3s.74,2.52,5.12,4.79c6.49,3.14,8.51,6.16,8.51,10.58,0,6.61-5,10.17-11.86,10.17a18,18,0,0,1-8.47-1.78c-.29-.12-.33-.33-.33-.66v-6.07c0-.41.21-.54.5-.33a15.34,15.34,0,0,0,8.31,2.44c3.26,0,4.63-1.36,4.63-3.22,0-1.49-1-2.81-5.12-5-5.87-2.81-8.31-5.66-8.31-10.41,0-5.33,4.17-9.75,11.41-9.75a19,19,0,0,1,7.4,1.16.92.92,0,0,1,.41.83v5.66c0,.33-.21.54-.62.41a14,14,0,0,0-7.19-1.86ZM112.57,134c1,.08,1.69.08,3.35.08,4.84,0,9.38-1.69,9.38-8.26,0-5.25-3.26-7.89-8.76-7.89-1.65,0-3.22.08-4,.12ZM105.22,112c0-.29.58-.5.91-.5,2.64-.12,6.57-.21,10.66-.21,11.45,0,15.91,6.28,15.91,14.3,0,10.5-7.6,15-16.94,15-1.57,0-2.11-.08-3.22-.08v15.87c0,.33-.12.5-.5.5h-6.32c-.33,0-.5-.12-.5-.5V112Z"/><circle class="cls-4" cx="131.95" cy="134.73" r="103.41"/></svg>