<svg id="Capa_1" data-name="Capa 1" xmlns="http://www.w3.org/2000/svg" viewBox="0 0 260 266.93"><defs><style>.cls-1{opacity:0.8;}.cls-2{fill:#fff;}.cls-3{fill:#efefef;}.cls-4{fill:none;stroke:#fdd231;stroke-linecap:round;stroke-miterlimit:10;stroke-width:10px;}.cls-5{fill:#fdb300;}.cls-6{fill:#eb6c00;}.cls-7{fill:#fdad00;}.cls-8{fill:#fdd231;}.cls-9{fill:#feeeb7;}</style></defs><title>Mesa de trabajo 30 copia 11</title><g class="cls-1"><circle class="cls-2" cx="133" cy="135.61" r="98.52"/></g><path class="cls-3" d="M131.73,42.2a93.41,93.41,0,1,1-93.41,93.41A93.52,93.52,0,0,1,131.73,42.2m0-10A103.41,103.41,0,1,0,235.14,135.61,103.41,103.41,0,0,0,131.73,32.2Z"/><path class="cls-4" d="M132.66,37.09c54.64,0,97.34,44.53,97.34,99.22s-42.39,97.28-97,97.28c-50.53,0-92.52-36.34-98.51-85.3"/><polygon class="cls-5" points="133 89.68 104.32 92.71 82.12 122.51 133 181.76 183.88 122.51 161.68 92.71 133 89.68"/><polygon class="cls-6" points="82.12 122.51 133 181.76 102.73 122.51 82.12 122.51"/><polygon class="cls-6" points="163.27 122.51 133 181.76 183.88 122.51 163.27 122.51"/><polygon class="cls-7" points="102.73 122.51 133 181.76 163.27 122.51 102.73 122.51"/><polygon class="cls-8" points="104.32 92.71 102.73 122.51 133 89.68 104.32 92.71"/><polygon class="cls-8" points="163.27 122.51 161.68 92.71 133 89.68 163.27 122.51"/><polygon class="cls-7" points="163.27 122.51 183.88 122.51 161.68 92.71 163.27 122.51"/><polygon class="cls-7" points="82.12 122.51 102.73 122.51 104.32 92.71 82.12 122.51"/><polygon class="cls-9" points="133 89.68 102.73 122.51 163.27 122.51 133 89.68"/></svg>