<svg id="Layer_1" data-name="Layer 1" xmlns="http://www.w3.org/2000/svg" viewBox="0 0 59 59"><defs><style>.cls-1{fill:#fff;}</style></defs><title>Artboard 1</title><path class="cls-1" d="M52.8,25.38l-.16-.09h0l-2.79-1.6V12.44s0,0,0,0a.3.3,0,0,0-.1-.2h0L40.07,4.3a.3.3,0,0,0-.17-.07h-29a.77.77,0,0,0-.77.77V23.67l-3,1.72,0,.06V54a.82.82,0,0,0,.82.82h44.2a.7.7,0,0,0,.7-.7V25.48A.12.12,0,0,0,52.8,25.38ZM40.18,11.44V5.18l8.5,7h-7.8A.69.69,0,0,1,40.18,11.44ZM49.84,27V24.39L52,25.6Zm-.61.4-15,9.71-4-3.75h-.42l-4.1,3.81L15.8,30.68h24a.13.13,0,0,0,.13-.12v-.36a.13.13,0,0,0-.12-.12H14.87l-4.08-2.66V5.48a.64.64,0,0,1,.64-.64H39.57v6.91a1,1,0,0,0,1,1h8.66ZM10.17,27,8,25.61l2.14-1.23Zm-2.42-.84,6.86,4.47,0,0,10.58,6.9L11.86,49.74a.12.12,0,0,0,0,.09V50a.13.13,0,0,0,.13.13h.29a.12.12,0,0,0,.08,0l13.5-12.3.27-.25,3.78-3.51a.18.18,0,0,1,.25,0l3.71,3.45.27.25L45.87,50a.12.12,0,0,0,.09,0h.29a.13.13,0,0,0,.13-.12v-.22a.13.13,0,0,0,0-.09L34.7,37.51,50.87,27l1.38-.89V53.59a.57.57,0,0,1-.57.57H8.45a.7.7,0,0,1-.7-.7Z"/><rect class="cls-1" x="13.57" y="13.77" width="26.33" height="0.61" rx="0.13" ry="0.13"/><rect class="cls-1" x="13.57" y="21.92" width="32.81" height="0.61" rx="0.13" ry="0.13"/></svg>