<svg id="Capa_1" data-name="Capa 1" xmlns="http://www.w3.org/2000/svg" viewBox="0 0 1087 1087"><defs><style>.cls-1,.cls-2,.cls-3,.cls-5{fill:none;}.cls-1,.cls-2,.cls-3,.cls-4,.cls-5,.cls-6{stroke:#000;stroke-linecap:round;stroke-width:3px;}.cls-1,.cls-2,.cls-3{stroke-miterlimit:10;}.cls-2{stroke-dasharray:9.49 11.39 14.24 11.39;}.cls-3{stroke-dasharray:12 10 10 12 15 12;}.cls-4{fill:#fff;}.cls-4,.cls-5,.cls-6{stroke-linejoin:round;}</style></defs><title>mano_ss</title><path d="M661.5,319.5c-.28,46.82-29.87,89.77-74.09,105.78s-94.92,2.19-125-33.95c-30.3-36.4-34.2-89.64-9.65-130.12s72.93-61.49,119.15-51.88c51.81,10.76,89.27,57.47,89.59,110.17a1.5,1.5,0,0,0,3,0c-.29-48-30.5-91.79-75.67-108.44-45.52-16.78-98.15-2.42-129,35S425,337.81,450.17,379.3c25,41.14,74,62.73,121.21,53.53,47-9.16,84.57-48.28,91.77-95.66a122.35,122.35,0,0,0,1.36-17.67A1.5,1.5,0,0,0,661.5,319.5Z"/><path d="M518.24,225.2c-28.81,12.51-54.18,39.56-59.69,70.9-.33,1.89,2.56,2.7,2.89.8,5.39-30.66,30.14-56.87,58.31-69.1,1.77-.77.24-3.35-1.51-2.59Z"/><path d="M517.74,237.92c-22.57,9.82-42.31,30.95-46.69,55.47-.34,1.89,2.55,2.7,2.89.8,4.26-23.85,23.38-44.14,45.31-53.68,1.77-.77.24-3.35-1.51-2.59Z"/><path d="M517.74,250c-16.81,7.33-31.35,23-34.69,41.24-.35,1.89,2.55,2.7,2.89.8,3.21-17.56,17.14-32.39,33.31-39.44,1.77-.77.24-3.36-1.51-2.59Z"/><path d="M517.74,261.15c-11,4.85-20.4,15.05-22.69,27-.36,1.89,2.53,2.69,2.89.8,2.16-11.27,10.91-20.64,21.31-25.21,1.76-.77.24-3.36-1.51-2.59Z"/><path d="M639.47,347.33c-5.15,23.14-21.36,45.84-43.79,54.49-1.78.69-1,3.59.8,2.89,23.42-9,40.49-32.35,45.88-56.58.42-1.88-2.47-2.68-2.89-.8Z"/><path d="M627.57,349.64c-3.8,17-15.64,33.59-32.09,40-1.78.69-1,3.6.8,2.89,17.45-6.8,30.14-24,34.19-42.1.42-1.88-2.47-2.68-2.89-.8Z"/><path d="M616.66,351.75c-2.46,10.87-9.92,21.33-20.4,25.51-1.77.71-1,3.61.8,2.89,11.47-4.59,19.79-15.63,22.49-27.61.42-1.88-2.47-2.68-2.89-.8Z"/><path d="M517.74,272.27c-5.2,2.28-9.61,7.14-10.69,12.76-.36,1.89,2.53,2.69,2.89.8,1-4.94,4.76-9,9.31-11,1.76-.77.24-3.36-1.51-2.59Z"/><line class="cls-1" x1="537" y1="118.5" x2="537.09" y2="124.5"/><line class="cls-2" x1="537.23" y1="133.99" x2="537.83" y2="174.81"/><line class="cls-1" x1="537.91" y1="180.5" x2="538" y2="186.5"/><line class="cls-3" x1="559" y1="147.5" x2="557" y2="186.5"/><line class="cls-3" x1="596" y1="105.5" x2="574" y2="188.5"/><line class="cls-3" x1="623" y1="124.5" x2="590" y2="193.5"/><line class="cls-3" x1="669" y1="115.5" x2="607" y2="199.5"/><line class="cls-3" x1="730" y1="96.5" x2="625" y2="210.5"/><line class="cls-3" x1="669" y1="199.5" x2="638" y2="220.5"/><line class="cls-3" x1="761" y1="180.5" x2="652" y2="235.5"/><line class="cls-3" x1="845" y1="180.5" x2="663" y2="249.5"/><line class="cls-3" x1="732" y1="253.5" x2="670" y2="265.5"/><line class="cls-3" x1="722" y1="275.5" x2="678" y2="281.5"/><line class="cls-3" x1="710" y1="298.5" x2="682" y2="300.5"/><line class="cls-3" x1="760" y1="320.5" x2="682" y2="320.5"/><line class="cls-3" x1="788" y1="367.5" x2="680" y2="341.5"/><line class="cls-3" x1="855" y1="433.5" x2="678" y2="358.5"/><line class="cls-3" x1="773" y1="438.5" x2="669" y2="376.5"/><line class="cls-3" x1="742" y1="464.5" x2="660" y2="392.5"/><line class="cls-3" x1="754" y1="546.5" x2="649" y2="407.5"/><line class="cls-3" x1="665" y1="473.5" x2="634" y2="421.5"/><line class="cls-3" x1="660" y1="522.5" x2="615" y2="433.5"/><line class="cls-3" x1="638" y1="564.5" x2="597" y2="443.5"/><line class="cls-3" x1="580" y1="471.5" x2="576" y2="449.5"/><line class="cls-3" x1="552" y1="514.5" x2="552" y2="452.5"/><line class="cls-3" x1="517" y1="518.5" x2="529" y2="450.5"/><line class="cls-3" x1="485" y1="492.5" x2="508" y2="445.5"/><line class="cls-3" x1="423" y1="537.5" x2="485" y2="435.5"/><line class="cls-3" x1="456.25" y1="440.5" x2="468" y2="425.5"/><line class="cls-3" x1="393.04" y1="511.19" x2="431.88" y2="466"/><line class="cls-3" x1="413" y1="462.5" x2="454" y2="413.5"/><line class="cls-3" x1="413" y1="425.5" x2="445" y2="401.5"/><line class="cls-3" x1="346.32" y1="441.46" x2="434" y2="388.5"/><line class="cls-3" x1="256" y1="452.5" x2="426" y2="370.5"/><line class="cls-3" x1="305" y1="381.5" x2="421" y2="354.5"/><line class="cls-3" x1="261" y1="347.5" x2="416" y2="334.5"/><line class="cls-3" x1="333" y1="317.5" x2="416" y2="319.5"/><line class="cls-3" x1="288" y1="288.5" x2="417" y2="299.5"/><line class="cls-3" x1="384" y1="269.5" x2="421" y2="283.5"/><path class="cls-3" d="M324,215.5c2-1,102,51,102,51"/><line class="cls-3" x1="367" y1="193.5" x2="434" y2="249.5"/><line class="cls-3" x1="325" y1="108.5" x2="445" y2="231.5"/><line class="cls-3" x1="375" y1="113.5" x2="463" y2="218.5"/><line class="cls-3" x1="421" y1="108.5" x2="478" y2="208.5"/><line class="cls-3" x1="465" y1="130.5" x2="497" y2="197.5"/><line class="cls-3" x1="494" y1="105.5" x2="519" y2="189.5"/><path class="cls-4" d="M434,480.5s-1.29-1.43-5.65-1.22"/><path class="cls-5" d="M543,625.5c-25.31-9.6-90.22-17.68-106.33-19.58a9.9,9.9,0,0,1-6.1-3.11c-13.79-14.84-45.31-43.24-54.2-51.2a7.34,7.34,0,0,1-2.44-5.15c-1.06-24.21-14.36-49-18-55.39a6.54,6.54,0,0,1-.88-3.3,57.88,57.88,0,0,0-11.26-34.31c-.53-.69.56,2.53.44,4.26h0c-1.41,7.9-4.43,11.28-7.94,15.85L335,475.47l3,22,13.47,55.79a14.81,14.81,0,0,0,1.69,4.16c24.32,40.43,69.84,83,69.84,83,26.3,26.3,115.25,59.81,141.59,69.36a38.89,38.89,0,0,1,19.57,15.45C595.43,742.89,591,762.5,591,762.5c-9,76-2,142-2,142s75-6,104-44c0,0-13-37-13-81,0,0,1-69-15-102,0,0-27.93-72.24-111.2-96.66a18.37,18.37,0,0,1-8.21-5c-9.09-9.64-34.24-36.08-49.59-39.31l1,1c7,8,2.88,14.1-3.4,15.51l-2.38.28a19.12,19.12,0,0,1-10.51-3.72l3.48,4.3s24.17,34.4,43.21,49.41a10.74,10.74,0,0,1,2.63,3c4.75,8.14,25.21,41.18,48,48.19"/><line class="cls-5" x1="535" y1="587.5" x2="531" y2="592.5"/><line class="cls-5" x1="542" y1="587.5" x2="538" y2="592.5"/><line class="cls-5" x1="674" y1="709.5" x2="667" y2="711.5"/><line class="cls-5" x1="674.89" y1="715.33" x2="663" y2="719.5"/><line class="cls-5" x1="505" y1="607.5" x2="496.5" y2="614.52"/><line class="cls-5" x1="508" y1="611.5" x2="503.1" y2="615.7"/><line class="cls-5" x1="521" y1="611.5" x2="513" y2="617.62"/><line class="cls-5" x1="526" y1="613.5" x2="520" y2="618.5"/><line class="cls-5" x1="531" y1="615.5" x2="526" y2="620.49"/><path class="cls-5" d="M352.38,555.94a11.77,11.77,0,0,0,5.62-.44"/><path class="cls-5" d="M380.38,529.94a11.77,11.77,0,0,0,5.62-.44"/><path class="cls-5" d="M355.19,489.11s-3.19-.61-5.19.39"/><path class="cls-5" d="M356.54,493.16a7.38,7.38,0,0,0-4.54.34"/><path class="cls-5" d="M394.24,567.81l-13.47-34.75a34,34,0,0,1-2.18-9.43l-5.19-61.38a66,66,0,0,1-.12-9.5l1.23-20.46c1.62.41,5.39-4.87,7-8.41a28.46,28.46,0,0,0,2.18-5.93c4,7.33,7.84,18.48,6.6,33.33a12.34,12.34,0,0,0,1,6.07c3.64,8.15,13.14,33,10,65.16a7,7,0,0,0,1.72,5.3c7.78,8.81,35.85,41,52.95,66.69h7"/><path class="cls-5" d="M374,452.5a6.93,6.93,0,0,0,5,0"/><path class="cls-5" d="M374,457.5a6.93,6.93,0,0,0,5,0"/><path class="cls-5" d="M435,566l-11.23-32.28a11.12,11.12,0,0,1-.58-4.54L427,481.5l11.61-19a19.91,19.91,0,0,0,8.63-1.7c3.83-1.95,6-6.26,6-6.26,1.29,5.58.78,13.06-6.59,20.44a5.43,5.43,0,0,0-1.61,3.8,294.21,294.21,0,0,1-4,45.59,6.59,6.59,0,0,0,1.22,5.1c7.94,10.5,34.2,45.7,36.74,55"/><path class="cls-5" d="M449.41,539l-3.3-10.89a8.18,8.18,0,0,1,1-6.85l6.45-9.86a11.53,11.53,0,0,0,6.71-1.59,31.14,31.14,0,0,0,5.29-4.72c2.13,4.08,1.39,11.49-1.82,22.11a3.85,3.85,0,0,0,1,3.88c3.83,3.71,13.08,13.28,16,18.44"/><path class="cls-5" d="M335,475.47c.15.48,23.35-21.76-7-40Z"/><path class="cls-5" d="M374.44,433.5l1.56-38S393.88,415.5,374.44,433.5Z"/><path class="cls-5" d="M438.61,462.5l13.39-22S460.22,462.5,438.61,462.5Z"/><path class="cls-5" d="M453.54,511.45,468,489.5S470.07,511.39,453.54,511.45Z"/><path class="cls-4" d="M463,529.5a6.19,6.19,0,0,0-4,2"/><path class="cls-4" d="M496.5,571.14s-6.5,2.36-9.5,5.36"/><path class="cls-4" d="M500.75,576.5s-2.75,0-6.75,3"/><path class="cls-5" d="M496.08,536.81s-9.83-12.36-24.58-13.31c0,0,0,18.45,11.39,27,4.45,3.33,11.19,4.19,15.11,0C500.77,547.57,502.47,543.46,496.08,536.81Z"/><path class="cls-4" d="M586.41,843s8.59-.5,11.59-3.5"/><path class="cls-5" d="M702,1007.5c0-1-2-93-2-93s-47,48-117,34"/><line class="cls-5" x1="583" y1="948.5" x2="568" y2="1048.5"/><path class="cls-5" d="M700,913.5s-47-7-117,35"/><path d="M584.5,947.5c69.4-42,116-35,116-35v1s-46.6,48-116,34"/><path class="cls-6" d="M431,564.5a67.94,67.94,0,0,0-27.36,12"/><path class="cls-5" d="M388.19,562.29S357,612.5,413,822.5c0,0,41.15-85.45,38.08-162.23"/><ellipse class="cls-6" cx="413.5" cy="833.5" rx="3.5" ry="13"/><ellipse cx="467.5" cy="901" rx="4.5" ry="9.5"/><ellipse cx="418" cy="729.5" rx="6.5" ry="9.5"/><ellipse class="cls-6" cx="467.5" cy="920" rx="4.5" ry="9.5"/><path class="cls-5" d="M433.5,605S411,798.5,468,891.5c0,0,28-107.88,26-209.94"/><path class="cls-5" d="M398.64,615.7S400,684.5,418,722.5c0,0,24-41.17,22.5-68.58"/></svg>