<svg id="Capa_1" data-name="Capa 1" xmlns="http://www.w3.org/2000/svg" viewBox="0 0 100 100"><defs><style>.cls-1{opacity:0.8;}.cls-2{fill:#fff;}.cls-3{fill:#c98efc;}.cls-4{fill:#efefef;}.cls-5{fill:none;stroke:#7c7c7c;stroke-linecap:round;stroke-miterlimit:10;stroke-width:3px;}</style></defs><title>Mesa de trabajo 53 copia 3</title><g class="cls-1"><ellipse class="cls-2" cx="50.72" cy="50.64" rx="40.24" ry="40.96"/></g><path class="cls-3" d="M58.82,49.58a7.24,7.24,0,0,0,1.21,0c0-.11,0-.2,0-.28a2.28,2.28,0,0,0-2.13-2.52c-1.57,0-2.24,1.37-2.41,2.83h3.29Zm-3.32,2.24c0,2.21,1.08,3.7,3.57,3.7A6.41,6.41,0,0,0,61.73,55c.11,0,.2,0,.2.11v2a.35.35,0,0,1-.16.33,7.42,7.42,0,0,1-3.29.62c-4.32,0-5.94-3.19-5.94-6.74,0-3.86,2-7,5.52-7s4.81,3,4.81,5.43a8.28,8.28,0,0,1-.13,1.74.24.24,0,0,1-.21.21,23.7,23.7,0,0,1-2.73.11H55.49Zm-8.77-1.67c-.46-1.82-1.57-5.78-2-7.69h0c-.34,1.92-1.24,5.16-1.92,7.69Zm-4.6,2.65-1.29,4.89c0,.13-.08.18-.25.18H38.18c-.16,0-.2,0-.16-.25l4.65-16.25A5,5,0,0,0,42.83,40c0-.11,0-.16.13-.16h3.44c.11,0,.16,0,.2.16L51.8,57.66c0,.13,0,.21-.13.21H49a.22.22,0,0,1-.25-.16L47.38,52.8H42.12Z"/><path class="cls-4" d="M50,12.78a38,38,0,1,1-38,38,38,38,0,0,1,38-38m0-3a41,41,0,1,0,41,41,41,41,0,0,0-41-41Z"/><path class="cls-5" d="M50.72,11.37C73,11.37,89.41,29,89.41,50.69S73,90.09,50.72,90.09"/></svg>