<svg id="Capa_1" data-name="Capa 1" xmlns="http://www.w3.org/2000/svg" viewBox="0 0 100 100"><defs><style>.cls-1{opacity:0.8;}.cls-2{fill:#fff;}.cls-3{fill:#efefef;}.cls-4{fill:none;stroke:#7c7c7c;stroke-linecap:round;stroke-miterlimit:10;stroke-width:3px;}.cls-5{fill:#e44d26;}.cls-6{fill:#f16529;}.cls-7{fill:#ebebeb;}</style></defs><title>Mesa de trabajo 53 copia 6</title><g class="cls-1"><circle class="cls-2" cx="49.74" cy="51.12" r="40.96"/></g><path class="cls-3" d="M49.74,13.16a38,38,0,1,1-38,38,38,38,0,0,1,38-38m0-3a41,41,0,1,0,41,41,41,41,0,0,0-41-41Z"/><path class="cls-4" d="M51.25,11.85c22.52.34,38.37,18,37.72,42.5"/><path class="cls-5" d="M63.92,40,61.44,67.79,50.3,70.88,39.18,67.8,36.71,40H63.92Z"/><path class="cls-6" d="M50.31,68.52l9-2.5,2.12-23.73H50.31Z"/><path class="cls-7" d="M45.49,49.1h4.82V45.7H41.77l.08.91L42.69,56h7.62V52.59H45.8Zm.77,8.6H42.84l.48,5.35,7,1.94h0V61.44h0l-3.79-1-.24-2.72Z"/><path d="M39.24,32.47H41v1.71h1.58V32.47h1.73v5.18H42.55V35.92H41v1.73H39.24V32.47Zm7.32,1.72H45V32.47h4.78v1.72H48.29v3.46H46.56V34.19h0Zm4-1.72h1.81l1.11,1.82,1.11-1.82h1.81v5.18H54.68V35.08l-1.19,1.84h0l-1.19-1.84v2.57H50.58Zm6.69,0H59v3.47h2.43v1.71H57.27V32.47Z"/><path class="cls-2" d="M50.3,56h4.2l-.4,4.42-3.8,1V65l7-1.94.05-.58.8-9,.08-.91H50.3V56Zm0-6.9h8.23l.07-.77.16-1.73.08-.91H50.3v3.4Z"/></svg>