<svg id="Capa_1" data-name="Capa 1" xmlns="http://www.w3.org/2000/svg" viewBox="0 0 100 100"><defs><style>.cls-1{fill:none;stroke:#7c7c7c;stroke-linecap:round;stroke-miterlimit:10;stroke-width:3px;}.cls-2{fill:#dc395f;}.cls-3{fill:#fff;}</style></defs><title>Mesa de trabajo 53 copia 4</title><circle class="cls-1" cx="50" cy="51.54" r="40.96"/><path class="cls-2" d="M66,32.73H35.74a3.35,3.35,0,0,0-3.35,3.35V66.3a3.35,3.35,0,0,0,3.35,3.35H66A3.35,3.35,0,0,0,69.3,66.3V36.08A3.35,3.35,0,0,0,66,32.73"/><path class="cls-3" d="M44.73,44.34a2.22,2.22,0,1,0-2.25-2.22,2.23,2.23,0,0,0,2.25,2.22m-4.68,11.9a7.63,7.63,0,0,0-.2,1.67,3,3,0,0,0,3.32,3.26,5.28,5.28,0,0,0,4.48-2.9L47,60.94h3.71l2.12-8.51c.53-2.16,1.56-3.27,3.12-3.27a1.86,1.86,0,0,1,2,2,4,4,0,0,1-.17,1.19l-1.09,3.91a5.88,5.88,0,0,0-.23,1.66,3,3,0,0,0,3.38,3.22c2,0,3.51-1.26,4.38-4.28l-1.46-.56c-.73,2-1.36,2.39-1.86,2.39s-.76-.33-.76-1a4.4,4.4,0,0,1,.17-1l1.06-3.81a8.41,8.41,0,0,0,.36-2.42c0-2.85-1.72-4.34-3.81-4.34s-3.95,1.76-4.94,3.62l.73-3.33H48l-.8,2.94h2.65l-1.63,6.54c-1.28,2.85-3.64,2.9-3.93,2.83-.49-.11-.8-.29-.8-.92a6.25,6.25,0,0,1,.23-1.52l2.49-9.87h-6.3l-.8,2.94h2.62l-1.69,6.91"/></svg>