<svg id="Capa_1" data-name="Capa 1" xmlns="http://www.w3.org/2000/svg" viewBox="0 0 100 100"><defs><style>.cls-1{opacity:0.8;}.cls-2{fill:#fff;}.cls-3,.cls-4{fill:none;stroke-miterlimit:10;stroke-width:3px;}.cls-3{stroke:#f2eee2;opacity:0.85;}.cls-4{stroke:#7c7c7c;stroke-linecap:round;}.cls-5{fill:#1991eb;}</style></defs><title>Mesa de trabajo 53 copia 7</title><g class="cls-1"><circle class="cls-2" cx="49.93" cy="51.19" r="40.96"/></g><line class="cls-3" x1="55.49" y1="55.13" x2="58.02" y2="58.12"/><circle class="cls-4" cx="50.75" cy="51.19" r="40.96"/><path class="cls-5" d="M55.21,46.92l1.58-1.58q.69-.69,1.31-1.2t1.24-1.07a14.18,14.18,0,0,1,2.27-1.65,3.63,3.63,0,0,1,1.72-.48,3,3,0,0,1,2.1.86,2.61,2.61,0,0,1,.93,2,3.64,3.64,0,0,1-.45,1.68,17.49,17.49,0,0,1-1.61,2.37q-5.36,7-5.36,9.07a.79.79,0,0,0,.89.89,2.69,2.69,0,0,0,1.51-.58,14.52,14.52,0,0,0,2.13-2q.69-.76,1.68-2.06t1.75-2.4a7.36,7.36,0,0,1,1.27-1.51,1.87,1.87,0,0,1,1.2-.41A1.64,1.64,0,0,1,71,50.43a7.79,7.79,0,0,1-1.2,3.47,27.81,27.81,0,0,1-3.13,4.43,21.35,21.35,0,0,1-4.91,4.47,8.77,8.77,0,0,1-4.57,1.58A4.22,4.22,0,0,1,54,63.1a4.48,4.48,0,0,1-1.24-3.26,10.72,10.72,0,0,1,.17-2A13.25,13.25,0,0,1,53.49,56a14.08,14.08,0,0,1,1-2.13A26.87,26.87,0,0,1,56,51.32q.07-.14.34-.55a22.79,22.79,0,0,0-3.54,3.47,32.87,32.87,0,0,0-3.54,5.39,18.54,18.54,0,0,1-2,2.92,2.27,2.27,0,0,1-1.72.72,2.36,2.36,0,0,1-1.82-.79,2.79,2.79,0,0,1-.72-2A6.34,6.34,0,0,1,43.22,59a12,12,0,0,1,.72-2,20.86,20.86,0,0,1,.89-2.1,15.36,15.36,0,0,1,1-1.75L47.11,51a3.18,3.18,0,0,0,.41-.69,24.71,24.71,0,0,0-2.68,2.51q-1.31,1.41-2.51,2.92a28.28,28.28,0,0,0-2.13,3.06,24.85,24.85,0,0,0-1.55,3,8.82,8.82,0,0,1-1.48,2.58,2.28,2.28,0,0,1-1.68.65,2.15,2.15,0,0,1-1.72-.82A3.22,3.22,0,0,1,33.09,62q0-2.61,2.54-9a61.46,61.46,0,0,1,3.13-6.73A43.71,43.71,0,0,1,42.09,41a9.63,9.63,0,0,1,1.65-1.75,2.46,2.46,0,0,1,1.51-.52,2.17,2.17,0,0,1,1.55.62,2,2,0,0,1,.65,1.51,3.81,3.81,0,0,1-.31,1.44,20.7,20.7,0,0,1-1.48,2.61L45,46l-1,1.82-.76,1.51q2.06-2.47,3.61-4.19a34.5,34.5,0,0,1,2.71-2.75,10.88,10.88,0,0,1,2.1-1.51,3.72,3.72,0,0,1,1.68-.48A2.31,2.31,0,0,1,55,41a2.14,2.14,0,0,1,.69,1.61A4.08,4.08,0,0,1,55.42,44a17.92,17.92,0,0,1-1.17,2.34L52.81,49l-.55,1,.82-.89q1.24-1.3,2.13-2.2Z"/></svg>