<svg id="Capa_1" data-name="Capa 1" xmlns="http://www.w3.org/2000/svg" viewBox="0 0 100 100"><defs><style>.cls-1{fill:#efefef;}.cls-2{fill:none;stroke:#7c7c7c;stroke-linecap:round;stroke-miterlimit:10;stroke-width:3px;}.cls-3{fill:#fdb300;}.cls-4{fill:#eb6c00;}.cls-5{fill:#fdad00;}.cls-6{fill:#fdd231;}.cls-7{fill:#feeeb7;}</style></defs><title>Mesa de trabajo 53</title><path class="cls-1" d="M50,12.22a38,38,0,1,1-38,38,38,38,0,0,1,38-38m0-3a41,41,0,1,0,41,41,41,41,0,0,0-41-41Z"/><path class="cls-2" d="M50,11c21.47-.87,39.45,17.59,39.45,39.31A39.57,39.57,0,0,1,50,89.66c-19.84,0-37.21-15.73-39.58-35.77"/><polygon class="cls-3" points="47.8 32.62 36.28 33.84 27.36 45.81 47.8 69.61 68.24 45.81 59.32 33.84 47.8 32.62"/><polygon class="cls-4" points="27.36 45.81 47.8 69.61 35.64 45.81 27.36 45.81"/><polygon class="cls-4" points="59.96 45.81 47.8 69.61 68.24 45.81 59.96 45.81"/><polygon class="cls-5" points="35.64 45.81 47.8 69.61 59.96 45.81 35.64 45.81"/><polygon class="cls-6" points="36.28 33.84 35.64 45.81 47.8 32.62 36.28 33.84"/><polygon class="cls-6" points="59.96 45.81 59.32 33.84 47.8 32.62 59.96 45.81"/><polygon class="cls-5" points="59.96 45.81 68.24 45.81 59.32 33.84 59.96 45.81"/><polygon class="cls-5" points="27.36 45.81 35.64 45.81 36.28 33.84 27.36 45.81"/><polygon class="cls-7" points="47.8 32.62 35.64 45.81 59.96 45.81 47.8 32.62"/></svg>